# xmcd
#
# Track frame offsets:
#	150
#	10162
#	29549
#	44006
#	54864
#	66097
#
# Disc length: 1026 seconds
# Revision: 0
# Processed by: cddbd v1.5.2PL0 Copyright (c) Steve Scherf et al.
# Submitted via: dBpowerAMP V12.0
#
DISCID=49040006
DTITLE=John Bowman - The Hole
DYEAR=2019
DGENRE=Bluegrass
TTITLE0=You Ought've Been There (Johnny Run The Pews)
TTITLE1=I Didn't Drive The Nails
TTITLE2=The Hole
TTITLE3=Little Bit
TTITLE4=Silverthorne Mountain
TTITLE5=I'll Talk It All Over With Him
EXTD=
EXTT0=
EXTT1=
EXTT2=
EXTT3=
EXTT4=
EXTT5=
PLAYORDER=
